<?xml version="1.0" encoding="utf-8" ?><svg xmlns="http://www.w3.org/2000/svg" xmlns:xlink="http://www.w3.org/1999/xlink" width="800" height="800" viewBox="0 0 800 800"><path fill="white" d="M0 0L800 0L800 800L0 800L0 0Z"/><path fill="#43A842" d="M705.759 123.605C708.836 123.237 712.168 123.269 715.27 123.293C727.609 123.385 742.679 125.666 751.669 134.954C760.431 144.007 759.485 155.793 759.295 167.504C759.128 177.761 759.317 188.25 757.745 198.406C753.655 224.831 743.242 250.113 738.083 276.356C736.17 285.773 734.512 295.239 733.11 304.745C730.648 322.082 728.953 339.933 722.977 356.508C718.227 369.705 710.492 381.627 700.376 391.342C694.099 397.402 687.025 402.576 679.349 406.723C658.245 418.232 632.878 424.85 609.101 427.645C604.451 428.191 599.753 428.81 595.064 428.702C622.192 443.009 651.405 464.995 660.918 495.416C670.037 524.574 663.12 557.152 651.426 584.52C645.858 597.552 639.069 610.049 633.665 623.181C630.777 630.197 627.979 637.358 625.561 644.551C623.027 652.083 621.086 659.89 617.372 666.958C612.58 676.078 606.262 683.753 596.091 686.809C578.851 691.989 559.51 684.024 544.459 676.052C537.343 672.074 530.466 667.141 524.252 661.866C511.218 650.801 499.45 637.148 492.602 621.381C484.446 602.602 486.973 590.718 485.741 571.711C484.882 558.466 482.039 544.564 477.04 532.214C470.853 516.929 461.802 502.818 453.164 488.838C434.012 457.841 411.648 422.16 408.709 384.985C407.728 372.566 408.113 359.914 410.835 347.732C418.059 315.401 444.311 275.684 465.784 250.628C511.07 197.786 568.92 161.613 634.568 139.456C657.464 131.728 681.601 125.471 705.759 123.605Z"/><path fill="#FE8D1A" d="M76.3374 123.598C88.9239 122.406 102.157 124.828 114.541 126.885C135.37 130.345 155.434 136.66 175.227 143.886C225.779 162.341 271.966 190.207 310.439 228.031C314.636 232.157 318.967 236.228 322.925 240.586C333.849 252.614 343.394 265.481 352.816 278.683C356.94 284.461 360.584 290.586 364.286 296.639C372.598 310.23 380.378 325.018 384.813 340.384C391.237 362.64 390.231 388.187 383.563 410.287C377.009 432.009 363.526 456.345 351.79 475.714C339.997 495.177 326.184 514.197 318.335 535.733C313.894 547.916 310.571 565.794 310.387 578.766C310.269 587.083 311.091 595.922 309.663 604.117C304.851 631.735 283.631 654.652 261.491 670.321C257.867 672.825 254.187 675.318 250.35 677.482C236.986 685.021 216.929 691.182 201.625 686.818C192.068 684.093 185.385 677.47 180.72 668.878C173.58 655.728 170.856 640.453 165.216 626.61C150.84 591.323 133.05 564.373 132.886 524.722C132.845 514.766 133.689 504.832 136.575 495.258C138.793 487.898 142.087 480.547 146.402 474.172C159.694 454.53 183.383 439.361 203.845 428.299C199.83 428.246 195.733 427.616 191.742 427.169C163.168 423.968 123.895 413.642 101.593 394.674C90.677 385.39 81.5322 373.906 76.2067 360.52C66.0144 334.898 65.8698 306.217 60.0268 279.504C57.189 266.427 53.9435 253.442 50.2952 240.568C48.6217 234.601 46.6237 228.73 44.9581 222.76C40.6334 207.259 37.1074 190.863 35.8706 174.804C34.8771 161.905 34.9384 146.243 43.9358 135.914C51.8117 126.872 64.9714 124.436 76.3374 123.598Z"/><path fill="#43A842" d="M398.662 439.348C400.538 441.627 402.026 444.984 403.54 447.555C407.659 454.548 411.683 461.634 415.971 468.523C436.6 501.66 461.674 530.857 463.4 571.867C464.207 591.045 459.375 610.102 446.122 624.472C433.548 638.105 417.298 644.765 398.971 645.524C385.563 645.307 373.578 641.737 362.352 634.358C348.082 624.929 338.194 610.167 334.905 593.383C333.468 586.248 333.358 578.804 333.657 571.548C335.145 535.464 354.249 510.995 372.597 481.897C378.345 472.816 384.006 463.68 389.579 454.49C392.62 449.455 395.394 444.24 398.662 439.348Z"/></svg>