<?xml version="1.0" encoding="utf-8" ?><svg xmlns="http://www.w3.org/2000/svg" xmlns:xlink="http://www.w3.org/1999/xlink" width="2654" height="1274" viewBox="0 0 2654 1274"><path fill="#43A842" d="M1711.36 494.982C1713.68 503.799 1711.91 528.087 1711.91 538.267L1711.83 649.168L1883.4 649.168L1948.67 830.685C1963.17 871.037 1978.45 911.261 1991.01 952.264C2003.23 910.158 2019.28 869.166 2034.38 828.032L2099.98 649.168L2196.99 649.168L2071.4 984.798L2031.78 1090.71C2019.45 1123.66 2007.38 1158.23 1989.83 1188.81C1976.71 1211.68 1958.93 1233.29 1934.98 1245.27C1898.32 1263.62 1861.55 1258.15 1824.16 1245.76L1813.26 1153.46L1828.5 1157.61C1850 1163.14 1876.03 1168.55 1897.08 1158.81C1923.91 1146.4 1933.25 1103.47 1942.98 1077.57C1925.1 1027.27 1905.11 977.499 1886.19 927.568L1782.51 654.158L1782.51 729L1711.83 729L1711.81 897.791C1711.81 922.914 1709.73 958.966 1712.86 982.941C1713.62 988.752 1714.57 995.399 1719.53 999.109C1733.43 1009.51 1764.21 1001.82 1780.36 999.505C1784.14 1028.18 1789.7 1056.92 1794.62 1085.43C1772.7 1090.31 1750.92 1094.3 1728.38 1094.4C1697.29 1094.53 1665.23 1089.39 1642.3 1066.29C1631.71 1055.62 1625.38 1042.85 1622.16 1028.25C1613.57 989.302 1616.83 940.745 1616.83 900.517L1616.83 729L1565.17 729L1565.17 649.168L1616.83 649.168L1616.83 551.969C1648.13 532.654 1679.86 513.967 1711.36 494.982Z"/><path fill="#FE8D1A" d="M760.928 640.431C792.324 638.781 824.911 640.624 855.301 649.107C904.753 662.909 938.904 693.447 947.633 745.375C952.072 771.784 950.953 799.689 950.959 826.433L950.99 935.717C951.164 967.809 949.818 1003.78 957.487 1035.13C962.261 1054.64 972.191 1071.68 981.989 1089L879.485 1089C872.654 1076.08 867.874 1062.8 864.414 1048.63C836.949 1068.37 809.891 1083.68 776.835 1091.82C729.305 1103.53 668.642 1101.7 625.863 1075.67C595.799 1057.38 577.353 1030.05 569.033 996.22C563.357 963.385 566.299 932.331 583.092 903.072C622.092 835.121 697.746 831.169 766.992 821.638C796.754 817.542 826.03 812.16 855.029 804.25C855.32 786.988 855.465 767.42 846.221 752.192C837.786 738.295 821.194 731.055 806.008 727.272C777.158 720.086 731.594 719.497 705.547 735.607C682.615 749.791 674.94 778.944 668.931 803.416C637.879 800.135 606.489 795.272 575.619 790.562C583.063 756.421 592.252 723.17 615.849 696.297C651.75 655.412 709.121 643.679 760.928 640.431ZM683.638 1003.19C706.006 1019.27 735.124 1020.94 761.657 1016.58C790.698 1011.8 818.595 997.612 836.065 973.374C853.237 949.55 856.773 914.815 854.727 886.192C828.744 894.201 802.244 899.683 775.439 904.094C749.546 908.355 720.01 909.775 695.875 920.734C685.616 925.392 676.964 932.589 671.691 942.655C665.844 953.817 664.391 967.89 668.178 979.94C671.109 989.267 676.644 996.53 683.638 1003.19Z"/><path fill="#FE8D1A" d="M23.6117 491.495L123.165 491.49L123.139 742.614C123.124 795.03 119.406 865.465 129.522 916.058C133.732 937.113 141.822 956.53 157.229 971.994C182.554 997.414 220.145 1005.31 254.821 1005.36C291.117 1005.42 335.834 1000.6 362.808 973.384C379.845 956.192 387.456 930.745 391.523 907.479C400.62 855.449 397.011 794.937 397.012 741.821L397 491.51L497.832 491.49L497.832 608.5L497.86 751.16C497.862 823.165 504.007 915.526 475.045 982.05C454.997 1028.1 416.193 1062.88 369.607 1081C302.61 1107.05 203.8 1105.5 137.975 1076.48C94.2079 1057.18 60.8697 1023.33 43.5886 978.639C32.1265 948.997 26.9623 917.512 24.3925 885.962C23.2899 872.776 22.6928 859.551 22.6026 846.319C22.2138 818.143 20.8055 497.855 23.6117 491.495Z"/><path fill="#43A842" d="M2540.23 166.501C2544.94 167.691 2552.81 166.754 2557.82 166.903C2579.81 167.556 2608.35 168.785 2625.35 184.554C2631.55 190.308 2634.53 197.352 2634.7 205.793C2634.88 214.558 2632.07 223.08 2629.62 231.391C2626.86 240.799 2624.27 250.336 2620.3 259.325C2610.53 281.467 2596.17 301.295 2585.76 323.089C2571.49 352.973 2562.95 389.397 2539.6 413.686C2520.43 433.622 2496.48 440.363 2469.89 443.231C2464.17 443.849 2457.87 445.039 2452.16 444.785C2445.38 444.484 2438.7 443.169 2431.95 442.711C2429.23 442.527 2426.57 443.313 2423.9 443.108C2419.65 442.782 2415.68 441.188 2411.37 441.263C2413.28 445.262 2420.3 449.885 2423.53 453.351C2435.12 465.812 2446.17 481.252 2452.45 497.156C2461.7 520.563 2457.07 547.841 2447.21 570.239C2434.04 600.154 2410.72 623.682 2391.82 649.927C2384.96 659.452 2380.14 670.786 2371.99 679.289C2367.41 684.075 2361.69 687.392 2355.57 689.78C2353.13 690.345 2350.7 690.812 2348.19 690.951C2331.3 691.889 2315.06 680.85 2302.89 670.1C2285.56 654.788 2270.53 632.621 2264.56 610.142C2258.61 587.762 2266.38 568.45 2269.38 546.622C2270.84 535.983 2270.57 525.54 2269.34 514.894C2267.68 500.548 2263.85 489.221 2259.69 475.571C2258.58 471.938 2258.17 468.147 2257.01 464.554C2248.1 437.115 2238.6 410.231 2236.93 381.094C2234.64 341.378 2248.74 310.25 2274.82 281.043C2324.2 225.749 2394.54 189.874 2466.59 175.005C2490.78 170.013 2515.6 167.893 2540.23 166.501Z"/><path fill="#FE8D1A" d="M1956.46 18.4124C1976.9 16.5215 1997.98 23.6229 2016.21 32.3237C2022.02 35.098 2026.94 38.501 2033.03 40.9212C2044.25 45.3847 2054.86 53.4562 2064.98 60.07C2123.77 98.4762 2174.48 152.999 2202.32 218.021C2241.2 308.843 2233.64 355.877 2163.57 425.711C2146.05 443.168 2125.45 460.635 2112.16 481.595C2100.48 500.038 2098.42 521.386 2090.39 541.055C2082 561.626 2062.02 579.867 2041.56 588.562C2035.12 592.697 2026.79 595.715 2019.51 598.065C2003 603.388 1982.2 605.593 1966.3 597.232C1957.35 592.524 1952.34 585.572 1949.44 575.975C1944.78 560.575 1946.08 544.054 1944.19 528.261C1943.4 521.735 1941.25 515.237 1940.06 508.753C1934.32 477.643 1929.96 448.503 1938.6 417.565C1940.45 410.941 1942.36 403.018 1945.74 397.023C1962.89 366.622 1997.02 354.885 2028.44 345.724C2012.65 342.474 1995.84 333.984 1981.96 325.93C1954.93 310.246 1930.87 289.674 1922.77 258.132C1914.72 226.754 1924.36 189.257 1924.86 156.955C1925.31 126.915 1921.76 97.1655 1925.01 67.1385C1926.26 55.6266 1928.45 43.6216 1934.53 33.5813C1939.77 24.9139 1946.8 20.7751 1956.46 18.4124Z"/><path fill="#43A842" d="M1195.38 640.426C1237.62 637.317 1283.33 647.507 1318.16 672.079C1359.35 701.14 1378.35 745.65 1386.58 793.968C1355.91 799.635 1324.72 802.7 1294.06 808.515C1290.29 790.148 1284.65 771.137 1273.87 755.565C1262.66 739.356 1246.16 727.983 1226.64 724.466C1200.58 719.77 1171.71 725.061 1150.04 740.463C1123.63 759.234 1111.12 787.886 1105.91 818.973C1098.1 865.604 1098.44 937.242 1127.38 977.33C1141.71 997.141 1163.37 1010.41 1187.53 1014.18C1212.03 1018.15 1238.09 1014.3 1258.46 999.419C1286.58 978.872 1293.27 946.186 1298.4 914.006L1298.62 911.956C1301.91 909.651 1381.51 921.527 1393.05 923.122C1386.07 965.648 1374.34 1005.43 1345.38 1038.49C1313.57 1074.79 1268.29 1094.86 1220.51 1097.84C1167.21 1101.17 1114.03 1087.77 1073.47 1051.91C1027.44 1011.21 1009.2 953.721 1005.55 893.862C1001.58 828.821 1012.53 752.378 1057.41 701.93C1092.59 662.391 1143.5 643.474 1195.38 640.426Z"/><path fill="#43A842" d="M1426.83 649.168L1522 649.168L1522 1089L1426.83 1089L1426.83 649.168Z"/><path fill="#43A842" d="M2215.81 403.146C2216.03 403.46 2240.98 479.245 2243.07 486.59C2250.97 514.38 2253.46 545.392 2238.68 571.476C2230.54 585.851 2217.54 597.981 2201.36 602.39C2190.52 605.341 2172.14 608.136 2161.84 602.218C2161.78 602.184 2161.72 602.14 2161.65 602.116C2148.97 597.675 2138.55 590.395 2130.13 579.845C2119.04 565.938 2115.11 549.226 2117.29 531.685C2122.75 487.894 2154.37 463.343 2183.64 434.639C2194.07 424.412 2204.28 412.046 2215.81 403.146Z"/><path fill="#43A842" d="M1426.83 491.49L1522 491.49L1522 597.167L1426.83 597.167L1426.83 491.49Z"/></svg>